PathFileType	4	(X/Y/Z)	RBDS023\RBDS023runT45.trc
DataRate	CameraRate	NumFrames	NumMarkers	Units	OrigDataRate	OrigDataStartFrame	OrigNumFrames
150.000000	150.000000	4	33	mm	150.000000	1687	4500
Frame#	Time	L.ASIS			L.Heel.Bottom			L.Heel.Lateral			L.Heel.Top			L.Iliac.Crest			L.MT1			L.MT5			L.PSIS			L.Shank.Bottom.Lateral			L.Shank.Bottom.Medial			L.Shank.Top.Lateral			L.Shank.Top.Medial			L.Thigh.Bottom.Lateral			L.Thigh.Bottom.Medial			L.Thigh.Top.Lateral			L.Thigh.Top.Medial			R.ASIS			R.ASY			R.Heel.Bottom			R.Heel.Lateral			R.Heel.Top			R.Iliac.Crest			R.MT1			R.MT5			R.PSIS			R.Shank.Bottom.Lateral			R.Shank.Bottom.Medial			R.Shank.Top.Lateral			R.Shank.Top.Medial			R.Thigh.Bottom.Lateral			R.Thigh.Bottom.Medial			R.Thigh.Top.Lateral			R.Thigh.Top.Medial			
		X1	Y1	Z1	X2	Y2	Z2	X3	Y3	Z3	X4	Y4	Z4	X5	Y5	Z5	X6	Y6	Z6	X7	Y7	Z7	X8	Y8	Z8	X9	Y9	Z9	X10	Y10	Z10	X11	Y11	Z11	X12	Y12	Z12	X13	Y13	Z13	X14	Y14	Z14	X15	Y15	Z15	X16	Y16	Z16	X17	Y17	Z17	X18	Y18	Z18	X19	Y19	Z19	X20	Y20	Z20	X21	Y21	Z21	X22	Y22	Z22	X23	Y23	Z23	X24	Y24	Z24	X25	Y25	Z25	X26	Y26	Z26	X27	Y27	Z27	X28	Y28	Z28	X29	Y29	Z29	X30	Y30	Z30	X31	Y31	Z31	X32	Y32	Z32	X33	Y33	Z33	

1688	11.24666666666667	2374.760365352176	956.4328895994627	945.1515885944735	2047.752275618699	41.12564859578799	1064.575458926048	2074.831585090574	61.69827434932323	1024.525908039719	2063.372315472905	86.02709743711314	1068.917484529513	2290.91532289806	1021.277884410747	909.46780943841	2276.985370688395	32.18468977802547	1089.329753851243	2232.144589396023	37.25679353615666	976.2238069381264	2203.28598947773	1006.504002289762	1021.908169149453	2177.841653796241	146.4792443691439	998.2925206318412	2139.301919215709	171.3210348223369	1020.580628157683	2209.068860766986	215.3909686743703	969.0539521244264	2172.57536737057	244.6500337293852	994.5852347552207	2336.462752733364	606.1079167546917	895.5588125213335	2278.532660327564	595.0880359108297	934.6680748702789	2306.281990668328	711.8092701059439	885.608256797733	2251.677286725871	701.8247176162276	924.6964193464897	2390.590103628648	947.4328253644113	1165.645949226284	2047.065650049435	382.346546189305	1132.202558309222	2001.697742130537	575.100280611233	1117.133507205501	2024.374893570795	548.6536731404376	1160.273379397154	2047.370971245887	561.6297121689565	1111.441940855857	2318.797664805084	1030.505761908988	1215.142335205418	1990.30587022274	350.9585063369088	1096.481524551164	2005.044930885462	386.7687881512451	1203.862827911616	2213.468961684901	1006.60256364516	1125.8606620373	2141.601558196662	490.5968008637045	1174.031337738785	2141.900447768254	539.5517285240179	1148.155600315689	2220.514378739166	500.8580758464398	1191.264230287856	2219.657161985473	547.7484144038496	1164.736984317925	2436.60452104602	583.397269249338	1217.614079844272	2388.388896574221	558.1374031423006	1169.410955360486	2372.950737224902	671.3370539294203	1231.27294518817	2324.960408312943	645.34253958283	1188.639221212293	
1689	11.25333333333333	2375.27137516268	957.7163226788941	945.4741887004069	2017.082025035127	44.74971648835307	1064.678703132132	2044.559632936244	64.64292845906022	1024.448443175198	2033.331495957812	89.59921494864204	1068.560815401207	2292.656845392338	1024.248332522971	909.0733586300908	2246.265488724386	31.71626877475665	1089.300053228677	2201.362048335607	37.07984913012374	976.7116510103774	2204.046058123661	1009.028792138672	1020.855991415638	2149.18141502657	148.8695245810829	998.4338526344314	2111.21526627404	174.4188201042717	1020.892722492546	2181.969410213114	217.1668848095267	969.5474152849082	2146.054927565153	247.1364609648224	995.0806210312602	2323.351436005141	605.5346971297237	896.5856321294517	2264.419614391401	597.1317141295065	934.9078207081059	2298.101492728586	712.5016799946711	886.4669695994641	2242.70205528003	705.1210733533519	925.1016724686634	2391.070430322311	951.9173545796289	1165.967597286739	2072.468268080171	365.6078506609661	1132.008888405241	2012.0297541063	554.2062537706958	1117.43175782078	2036.592818335488	529.4108780780241	1160.566198375398	2058.538201463703	544.4982397833927	1111.882318216638	2317.750986139366	1034.443557096949	1214.588196602322	2018.486186040711	330.1589620511231	1095.641239691092	2029.881010013925	366.3025997786695	1203.390345727375	2213.598332063046	1009.744453120202	1124.990815399953	2158.233119804832	479.8952569246928	1173.878725616226	2155.222220000481	528.8673901948544	1148.282991233216	2236.222980172204	495.405542539454	1191.131686165426	2232.223786927615	542.2300970591536	1164.843783315354	2449.811909242764	593.0955158908014	1217.764789092975	2402.52351863697	565.8113263912841	1169.54946331171	2382.410659021166	678.3220436244931	1231.590260172758	2335.616326676933	650.5019357666455	1188.661897438347	
1690	11.26	2376.446735703211	959.4145954057728	946.1269601670259	1986.752766797344	49.69239371047486	1064.608409174037	2014.712366231918	68.62833164132137	1024.179583547753	2003.906625628651	94.34862844584589	1067.971221397369	2295.775073674513	1027.769425181236	908.5627635596211	2215.472909273447	31.12162149588133	1089.329132375437	2170.648564669779	36.88167667226871	977.150747403747	2205.317663748345	1011.960393873049	1019.620618520775	2120.927525182205	152.248555667059	998.3972907252672	2083.499874111933	178.3800169689526	1021.101170562471	2155.078505298128	220.0237445745616	969.9077099502432	2119.677679162847	250.5805131922592	995.4899428127953	2310.123566443281	606.0478135606935	897.7392777618986	2250.385809514763	600.4080685736352	935.3818453277579	2289.97591701721	714.0648837543838	887.3954979871014	2233.945261122872	709.4143649846268	925.62990944251	2392.042958216584	957.0305115963919	1166.241240609895	2098.714103450938	348.5082216387609	1131.585420841468	2023.053798809529	531.667072556099	1117.232622516081	2049.385996648196	508.7376795324022	1160.406924584489	2070.14901395511	525.9134660229058	1111.915095839465	2317.726981858214	1039.073154259201	1214.07822908634	2048.002543408793	309.1018789637514	1094.435790595641	2055.755926041677	345.4002297456962	1202.552100448732	2214.170316991078	1013.390835733242	1124.075381934169	2174.966158519412	468.6187652678024	1173.435614345046	2168.490312355076	517.3249850540091	1147.997512035003	2251.627725814689	489.6400189641085	1190.695852535563	2244.348346938726	536.1092344830009	1164.531301111002	2461.978675673528	603.3720260712515	1217.726813009866	2415.650583765255	574.4608235425285	1169.401788902408	2391.238953034428	685.9955387735121	1231.853609125264	2345.721216142285	656.7203561847876	1188.424577750194	
1691	11.26666666666667	2378.274268182	961.5145871655708	947.0670840145796	1957.05415422419	56.13370027743479	1064.301806565031	1985.55621943666	73.78668942743394	1023.658457304762	1975.404524225427	100.3936724055056	1067.086635323117	2300.238602931234	1031.692553518272	907.9789248846724	2184.645112218549	30.45001325484608	1089.38546265777	2140.090758444668	36.70571159758638	977.4817893889536	2207.07456667685	1015.261620451153	1018.256597463472	2093.325983448154	156.6829185388727	998.1061937261587	2056.397390589795	183.262323821627	1021.133837793078	2128.631733820962	224.0477201462112	970.066114321658	2093.675107489938	255.0549376379634	995.7546583066533	2296.871364028768	607.7343217101961	899.0348613293054	2236.584549921588	604.9978018390411	936.1787330040393	2281.954421868702	716.5537389370575	888.4008326718779	2225.506928497693	714.742706490149	926.3400213797421	2393.487238342187	962.6281942637191	1166.433946435342	2125.86215104952	331.2580238365395	1130.922303120504	2035.127627488412	507.6612346903028	1116.572140794034	2063.079335957932	486.7845049744842	1159.814734728636	2082.525564364069	505.9909584857427	1111.547034264031	2318.646624421786	1044.313397521779	1213.637950780304	2078.903239746834	288.0851661015298	1092.921461138344	2082.807288416586	324.3091958013167	1201.389076321073	2215.181779393073	1017.477661596861	1123.139984490465	2191.959838630692	456.798206631948	1172.725839772726	2181.935794621593	504.9247391073923	1147.310661385769	2266.84807848393	483.4850133005207	1189.983934012101	2256.221453390288	529.282593630935	1163.811816789966	2473.070973715044	613.967347482132	1217.541894257066	2427.728579606337	583.8386606778836	1169.008636100623	2399.403630432399	694.1532216457825	1232.096037708387	2355.195241032472	663.7719978364991	1187.995530296602	
